<?xml version="1.0" encoding="utf-8" standalone="no"?>
<!DOCTYPE svg PUBLIC "-//W3C//DTD SVG 1.1//EN"
  "http://www.w3.org/Graphics/SVG/1.1/DTD/svg11.dtd">
<svg xmlns:xlink="http://www.w3.org/1999/xlink" width="111.168pt" height="72pt" viewBox="0 0 111.168 72" xmlns="http://www.w3.org/2000/svg" version="1.1">
 <metadata>
  <rdf:RDF xmlns:dc="http://purl.org/dc/elements/1.1/" xmlns:cc="http://creativecommons.org/ns#" xmlns:rdf="http://www.w3.org/1999/02/22-rdf-syntax-ns#">
   <cc:Work>
    <dc:type rdf:resource="http://purl.org/dc/dcmitype/StillImage"/>
    <dc:date>2023-02-27T12:33:14.444919</dc:date>
    <dc:format>image/svg+xml</dc:format>
    <dc:creator>
     <cc:Agent>
      <dc:title>Matplotlib v3.6.2, https://matplotlib.org/</dc:title>
     </cc:Agent>
    </dc:creator>
   </cc:Work>
  </rdf:RDF>
 </metadata>
 <defs>
  <style type="text/css">*{stroke-linejoin: round; stroke-linecap: butt}</style>
 </defs>
 <g id="figure_1">
  <g id="patch_1">
   <path d="M 0 72 
L 111.168 72 
L 111.168 0 
L 0 0 
L 0 72 
z
" style="fill: none"/>
  </g>
  <g id="axes_1">
   <g id="line2d_1">
    <defs>
     <path id="mf7450f2005" d="M 0 0.25 
C 0.066301 0.25 0.129895 0.223658 0.176777 0.176777 
C 0.223658 0.129895 0.25 0.066301 0.25 0 
C 0.25 -0.066301 0.223658 -0.129895 0.176777 -0.176777 
C 0.129895 -0.223658 0.066301 -0.25 0 -0.25 
C -0.066301 -0.25 -0.129895 -0.223658 -0.176777 -0.176777 
C -0.223658 -0.129895 -0.25 -0.066301 -0.25 0 
C -0.25 0.066301 -0.223658 0.129895 -0.176777 0.176777 
C -0.129895 0.223658 -0.066301 0.25 0 0.25 
z
" style="stroke: #000000"/>
    </defs>
    <g clip-path="url(#pfb1d138ed2)">
     <use xlink:href="#mf7450f2005" x="14.871273" y="58.909091" style="stroke: #000000"/>
     <use xlink:href="#mf7450f2005" x="23.918545" y="58.909091" style="stroke: #000000"/>
     <use xlink:href="#mf7450f2005" x="32.965818" y="58.909091" style="stroke: #000000"/>
     <use xlink:href="#mf7450f2005" x="42.013091" y="58.909091" style="stroke: #000000"/>
     <use xlink:href="#mf7450f2005" x="51.060364" y="58.909091" style="stroke: #000000"/>
     <use xlink:href="#mf7450f2005" x="60.107636" y="58.909091" style="stroke: #000000"/>
     <use xlink:href="#mf7450f2005" x="69.154909" y="58.909091" style="stroke: #000000"/>
     <use xlink:href="#mf7450f2005" x="78.202182" y="58.909091" style="stroke: #000000"/>
     <use xlink:href="#mf7450f2005" x="87.249455" y="58.909091" style="stroke: #000000"/>
     <use xlink:href="#mf7450f2005" x="96.296727" y="58.909091" style="stroke: #000000"/>
     <use xlink:href="#mf7450f2005" x="14.871273" y="49.745455" style="stroke: #000000"/>
     <use xlink:href="#mf7450f2005" x="23.918545" y="49.745455" style="stroke: #000000"/>
     <use xlink:href="#mf7450f2005" x="32.965818" y="49.745455" style="stroke: #000000"/>
     <use xlink:href="#mf7450f2005" x="42.013091" y="49.745455" style="stroke: #000000"/>
     <use xlink:href="#mf7450f2005" x="51.060364" y="49.745455" style="stroke: #000000"/>
     <use xlink:href="#mf7450f2005" x="60.107636" y="49.745455" style="stroke: #000000"/>
     <use xlink:href="#mf7450f2005" x="69.154909" y="49.745455" style="stroke: #000000"/>
     <use xlink:href="#mf7450f2005" x="78.202182" y="49.745455" style="stroke: #000000"/>
     <use xlink:href="#mf7450f2005" x="87.249455" y="49.745455" style="stroke: #000000"/>
     <use xlink:href="#mf7450f2005" x="96.296727" y="49.745455" style="stroke: #000000"/>
     <use xlink:href="#mf7450f2005" x="14.871273" y="40.581818" style="stroke: #000000"/>
     <use xlink:href="#mf7450f2005" x="23.918545" y="40.581818" style="stroke: #000000"/>
     <use xlink:href="#mf7450f2005" x="32.965818" y="40.581818" style="stroke: #000000"/>
     <use xlink:href="#mf7450f2005" x="42.013091" y="40.581818" style="stroke: #000000"/>
     <use xlink:href="#mf7450f2005" x="51.060364" y="40.581818" style="stroke: #000000"/>
     <use xlink:href="#mf7450f2005" x="60.107636" y="40.581818" style="stroke: #000000"/>
     <use xlink:href="#mf7450f2005" x="69.154909" y="40.581818" style="stroke: #000000"/>
     <use xlink:href="#mf7450f2005" x="78.202182" y="40.581818" style="stroke: #000000"/>
     <use xlink:href="#mf7450f2005" x="87.249455" y="40.581818" style="stroke: #000000"/>
     <use xlink:href="#mf7450f2005" x="96.296727" y="40.581818" style="stroke: #000000"/>
     <use xlink:href="#mf7450f2005" x="14.871273" y="31.418182" style="stroke: #000000"/>
     <use xlink:href="#mf7450f2005" x="23.918545" y="31.418182" style="stroke: #000000"/>
     <use xlink:href="#mf7450f2005" x="32.965818" y="31.418182" style="stroke: #000000"/>
     <use xlink:href="#mf7450f2005" x="42.013091" y="31.418182" style="stroke: #000000"/>
     <use xlink:href="#mf7450f2005" x="51.060364" y="31.418182" style="stroke: #000000"/>
     <use xlink:href="#mf7450f2005" x="60.107636" y="31.418182" style="stroke: #000000"/>
     <use xlink:href="#mf7450f2005" x="69.154909" y="31.418182" style="stroke: #000000"/>
     <use xlink:href="#mf7450f2005" x="78.202182" y="31.418182" style="stroke: #000000"/>
     <use xlink:href="#mf7450f2005" x="87.249455" y="31.418182" style="stroke: #000000"/>
     <use xlink:href="#mf7450f2005" x="96.296727" y="31.418182" style="stroke: #000000"/>
     <use xlink:href="#mf7450f2005" x="14.871273" y="22.254545" style="stroke: #000000"/>
     <use xlink:href="#mf7450f2005" x="23.918545" y="22.254545" style="stroke: #000000"/>
     <use xlink:href="#mf7450f2005" x="32.965818" y="22.254545" style="stroke: #000000"/>
     <use xlink:href="#mf7450f2005" x="42.013091" y="22.254545" style="stroke: #000000"/>
     <use xlink:href="#mf7450f2005" x="51.060364" y="22.254545" style="stroke: #000000"/>
     <use xlink:href="#mf7450f2005" x="60.107636" y="22.254545" style="stroke: #000000"/>
     <use xlink:href="#mf7450f2005" x="69.154909" y="22.254545" style="stroke: #000000"/>
     <use xlink:href="#mf7450f2005" x="78.202182" y="22.254545" style="stroke: #000000"/>
     <use xlink:href="#mf7450f2005" x="87.249455" y="22.254545" style="stroke: #000000"/>
     <use xlink:href="#mf7450f2005" x="96.296727" y="22.254545" style="stroke: #000000"/>
     <use xlink:href="#mf7450f2005" x="14.871273" y="13.090909" style="stroke: #000000"/>
     <use xlink:href="#mf7450f2005" x="23.918545" y="13.090909" style="stroke: #000000"/>
     <use xlink:href="#mf7450f2005" x="32.965818" y="13.090909" style="stroke: #000000"/>
     <use xlink:href="#mf7450f2005" x="42.013091" y="13.090909" style="stroke: #000000"/>
     <use xlink:href="#mf7450f2005" x="51.060364" y="13.090909" style="stroke: #000000"/>
     <use xlink:href="#mf7450f2005" x="60.107636" y="13.090909" style="stroke: #000000"/>
     <use xlink:href="#mf7450f2005" x="69.154909" y="13.090909" style="stroke: #000000"/>
     <use xlink:href="#mf7450f2005" x="78.202182" y="13.090909" style="stroke: #000000"/>
     <use xlink:href="#mf7450f2005" x="87.249455" y="13.090909" style="stroke: #000000"/>
     <use xlink:href="#mf7450f2005" x="96.296727" y="13.090909" style="stroke: #000000"/>
    </g>
   </g>
  </g>
 </g>
 <defs>
  <clipPath id="pfb1d138ed2">
   <rect x="10.8" y="10.8" width="89.568" height="50.4"/>
  </clipPath>
 </defs>
</svg>
