<?xml version="1.0" encoding="utf-8" standalone="no"?>
<!DOCTYPE svg PUBLIC "-//W3C//DTD SVG 1.1//EN"
  "http://www.w3.org/Graphics/SVG/1.1/DTD/svg11.dtd">
<svg xmlns:xlink="http://www.w3.org/1999/xlink" width="111.168pt" height="72pt" viewBox="0 0 111.168 72" xmlns="http://www.w3.org/2000/svg" version="1.1">
 <metadata>
  <rdf:RDF xmlns:dc="http://purl.org/dc/elements/1.1/" xmlns:cc="http://creativecommons.org/ns#" xmlns:rdf="http://www.w3.org/1999/02/22-rdf-syntax-ns#">
   <cc:Work>
    <dc:type rdf:resource="http://purl.org/dc/dcmitype/StillImage"/>
    <dc:date>2023-02-27T12:33:14.462307</dc:date>
    <dc:format>image/svg+xml</dc:format>
    <dc:creator>
     <cc:Agent>
      <dc:title>Matplotlib v3.6.2, https://matplotlib.org/</dc:title>
     </cc:Agent>
    </dc:creator>
   </cc:Work>
  </rdf:RDF>
 </metadata>
 <defs>
  <style type="text/css">*{stroke-linejoin: round; stroke-linecap: butt}</style>
 </defs>
 <g id="figure_1">
  <g id="patch_1">
   <path d="M 0 72 
L 111.168 72 
L 111.168 0 
L 0 0 
L 0 72 
z
" style="fill: none"/>
  </g>
  <g id="axes_1">
   <g id="line2d_1">
    <defs>
     <path id="m2884ab1484" d="M 0 0.25 
C 0.066301 0.25 0.129895 0.223658 0.176777 0.176777 
C 0.223658 0.129895 0.25 0.066301 0.25 0 
C 0.25 -0.066301 0.223658 -0.129895 0.176777 -0.176777 
C 0.129895 -0.223658 0.066301 -0.25 0 -0.25 
C -0.066301 -0.25 -0.129895 -0.223658 -0.176777 -0.176777 
C -0.223658 -0.129895 -0.25 -0.066301 -0.25 0 
C -0.25 0.066301 -0.223658 0.129895 -0.176777 0.176777 
C -0.129895 0.223658 -0.066301 0.25 0 0.25 
z
" style="stroke: #000000"/>
    </defs>
    <g clip-path="url(#pe7165e6981)">
     <use xlink:href="#m2884ab1484" x="14.871273" y="58.909091" style="stroke: #000000"/>
     <use xlink:href="#m2884ab1484" x="23.918545" y="57.212121" style="stroke: #000000"/>
     <use xlink:href="#m2884ab1484" x="32.965818" y="55.515152" style="stroke: #000000"/>
     <use xlink:href="#m2884ab1484" x="42.013091" y="53.818182" style="stroke: #000000"/>
     <use xlink:href="#m2884ab1484" x="51.060364" y="52.121212" style="stroke: #000000"/>
     <use xlink:href="#m2884ab1484" x="60.107636" y="50.424242" style="stroke: #000000"/>
     <use xlink:href="#m2884ab1484" x="69.154909" y="48.727273" style="stroke: #000000"/>
     <use xlink:href="#m2884ab1484" x="78.202182" y="47.030303" style="stroke: #000000"/>
     <use xlink:href="#m2884ab1484" x="87.249455" y="45.333333" style="stroke: #000000"/>
     <use xlink:href="#m2884ab1484" x="96.296727" y="43.636364" style="stroke: #000000"/>
     <use xlink:href="#m2884ab1484" x="14.871273" y="49.745455" style="stroke: #000000"/>
     <use xlink:href="#m2884ab1484" x="23.918545" y="48.727273" style="stroke: #000000"/>
     <use xlink:href="#m2884ab1484" x="32.965818" y="47.709091" style="stroke: #000000"/>
     <use xlink:href="#m2884ab1484" x="42.013091" y="46.690909" style="stroke: #000000"/>
     <use xlink:href="#m2884ab1484" x="51.060364" y="45.672727" style="stroke: #000000"/>
     <use xlink:href="#m2884ab1484" x="60.107636" y="44.654545" style="stroke: #000000"/>
     <use xlink:href="#m2884ab1484" x="69.154909" y="43.636364" style="stroke: #000000"/>
     <use xlink:href="#m2884ab1484" x="78.202182" y="42.618182" style="stroke: #000000"/>
     <use xlink:href="#m2884ab1484" x="87.249455" y="41.6" style="stroke: #000000"/>
     <use xlink:href="#m2884ab1484" x="96.296727" y="40.581818" style="stroke: #000000"/>
     <use xlink:href="#m2884ab1484" x="14.871273" y="40.581818" style="stroke: #000000"/>
     <use xlink:href="#m2884ab1484" x="23.918545" y="40.242424" style="stroke: #000000"/>
     <use xlink:href="#m2884ab1484" x="32.965818" y="39.90303" style="stroke: #000000"/>
     <use xlink:href="#m2884ab1484" x="42.013091" y="39.563636" style="stroke: #000000"/>
     <use xlink:href="#m2884ab1484" x="51.060364" y="39.224242" style="stroke: #000000"/>
     <use xlink:href="#m2884ab1484" x="60.107636" y="38.884848" style="stroke: #000000"/>
     <use xlink:href="#m2884ab1484" x="69.154909" y="38.545455" style="stroke: #000000"/>
     <use xlink:href="#m2884ab1484" x="78.202182" y="38.206061" style="stroke: #000000"/>
     <use xlink:href="#m2884ab1484" x="87.249455" y="37.866667" style="stroke: #000000"/>
     <use xlink:href="#m2884ab1484" x="96.296727" y="37.527273" style="stroke: #000000"/>
     <use xlink:href="#m2884ab1484" x="14.871273" y="31.418182" style="stroke: #000000"/>
     <use xlink:href="#m2884ab1484" x="23.918545" y="31.757576" style="stroke: #000000"/>
     <use xlink:href="#m2884ab1484" x="32.965818" y="32.09697" style="stroke: #000000"/>
     <use xlink:href="#m2884ab1484" x="42.013091" y="32.436364" style="stroke: #000000"/>
     <use xlink:href="#m2884ab1484" x="51.060364" y="32.775758" style="stroke: #000000"/>
     <use xlink:href="#m2884ab1484" x="60.107636" y="33.115152" style="stroke: #000000"/>
     <use xlink:href="#m2884ab1484" x="69.154909" y="33.454545" style="stroke: #000000"/>
     <use xlink:href="#m2884ab1484" x="78.202182" y="33.793939" style="stroke: #000000"/>
     <use xlink:href="#m2884ab1484" x="87.249455" y="34.133333" style="stroke: #000000"/>
     <use xlink:href="#m2884ab1484" x="96.296727" y="34.472727" style="stroke: #000000"/>
     <use xlink:href="#m2884ab1484" x="14.871273" y="22.254545" style="stroke: #000000"/>
     <use xlink:href="#m2884ab1484" x="23.918545" y="23.272727" style="stroke: #000000"/>
     <use xlink:href="#m2884ab1484" x="32.965818" y="24.290909" style="stroke: #000000"/>
     <use xlink:href="#m2884ab1484" x="42.013091" y="25.309091" style="stroke: #000000"/>
     <use xlink:href="#m2884ab1484" x="51.060364" y="26.327273" style="stroke: #000000"/>
     <use xlink:href="#m2884ab1484" x="60.107636" y="27.345455" style="stroke: #000000"/>
     <use xlink:href="#m2884ab1484" x="69.154909" y="28.363636" style="stroke: #000000"/>
     <use xlink:href="#m2884ab1484" x="78.202182" y="29.381818" style="stroke: #000000"/>
     <use xlink:href="#m2884ab1484" x="87.249455" y="30.4" style="stroke: #000000"/>
     <use xlink:href="#m2884ab1484" x="96.296727" y="31.418182" style="stroke: #000000"/>
     <use xlink:href="#m2884ab1484" x="14.871273" y="13.090909" style="stroke: #000000"/>
     <use xlink:href="#m2884ab1484" x="23.918545" y="14.787879" style="stroke: #000000"/>
     <use xlink:href="#m2884ab1484" x="32.965818" y="16.484848" style="stroke: #000000"/>
     <use xlink:href="#m2884ab1484" x="42.013091" y="18.181818" style="stroke: #000000"/>
     <use xlink:href="#m2884ab1484" x="51.060364" y="19.878788" style="stroke: #000000"/>
     <use xlink:href="#m2884ab1484" x="60.107636" y="21.575758" style="stroke: #000000"/>
     <use xlink:href="#m2884ab1484" x="69.154909" y="23.272727" style="stroke: #000000"/>
     <use xlink:href="#m2884ab1484" x="78.202182" y="24.969697" style="stroke: #000000"/>
     <use xlink:href="#m2884ab1484" x="87.249455" y="26.666667" style="stroke: #000000"/>
     <use xlink:href="#m2884ab1484" x="96.296727" y="28.363636" style="stroke: #000000"/>
    </g>
   </g>
  </g>
 </g>
 <defs>
  <clipPath id="pe7165e6981">
   <rect x="10.8" y="10.8" width="89.568" height="50.4"/>
  </clipPath>
 </defs>
</svg>
